<?xml version="1.0" encoding="utf-8"?>
<!-- Generator: Adobe Illustrator 22.1.0, SVG Export Plug-In . SVG Version: 6.00 Build 0)  -->
<svg version="1.1" id="Layer_1" xmlns="http://www.w3.org/2000/svg" xmlns:xlink="http://www.w3.org/1999/xlink" x="0px" y="0px"
	 viewBox="0 0 1700.8 1700.8" style="enable-background:new 0 0 1700.8 1700.8;" xml:space="preserve">
<style type="text/css">
	.st0{fill:#292E4A;}
	.st1{fill:#6068AE;}
	.st2{clip-path:url(#SVGID_2_);fill:#27348B;}
	.st3{clip-path:url(#SVGID_2_);fill:none;stroke:#000000;stroke-width:0.25;stroke-miterlimit:10;}
</style>
<g>
	<path class="st0" d="M293.4,1282.6h-62.6L345,993.4c12-30.4,34.2-41.9,68.4-41.9c33.7,0,55.9,11.6,67.5,41.9l109.9,289.2h-63.1
		l-98.8-261.7c-2.9-7.7-8.2-11.1-15.9-11.1c-7.7,0-13,3.4-16.4,11.1L293.4,1282.6z"/>
	<path class="st0" d="M780.6,957.3c94.9,0,146.5,53,146.5,162.9c0,109.4-51.1,162.4-146.5,162.4H665.9c-18.3,0-27-8.7-27-26.5V983.8
		c0-17.8,8.7-26.5,27-26.5H780.6z M695.8,1219.9c0,4.3,1.9,5.8,6.3,5.8h78.6c63.1,0,89.6-31.3,89.6-106
		c0-74.2-26.5-105.5-89.6-105.5h-78.6c-4.3,0-6.3,1.4-6.3,5.8V1219.9z"/>
	<path class="st0" d="M1008.1,1282.6h-62.6l114.2-289.2c12-30.4,34.2-41.9,68.4-41.9c33.7,0,55.9,11.6,67.5,41.9l109.9,289.2h-63.1
		l-98.8-261.7c-2.9-7.7-8.2-11.1-15.9-11.1c-7.7,0-13,3.4-16.4,11.1L1008.1,1282.6z"/>
</g>
<g>
	<path class="st1" d="M1347.4,849.3c30.7,0,43.8,14.8,43.8,39.8c0,23.9-12,37.4-44,37.4h-61.7v9.3c0,10.3,5.7,18,19.9,18h79.4v25.3
		h-79.4c-32.5,0-45.2-18.2-45.2-42.8v-44.3c0-24.6,12.8-42.8,45.2-42.8H1347.4z M1285.5,906.1h61c14,0,19.2-5.9,19.2-15.5
		c0-9.8-5.7-16.2-18.4-16.2h-41.8c-14.3,0-19.9,7.9-19.9,17.9V906.1z"/>
	<path class="st1" d="M1452.2,849.3v137.2c0,33.9-11.6,44.8-38.1,44.8h-22.9v-25.1h17c12.8,0,17.7-4.9,17.7-19.4V849.3H1452.2z
		 M1452.2,800.4v30.2h-26.3v-30.2H1452.2z"/>
</g>
<g>
	<defs>
		<rect id="SVGID_1_" y="0" width="1700.8" height="1700.8"/>
	</defs>
	<clipPath id="SVGID_2_">
		<use xlink:href="#SVGID_1_"  style="overflow:visible;"/>
	</clipPath>
	<path class="st2" d="M724.1,280.4c-19,0-34.4,15.4-34.4,34.4c0,19,15.4,34.4,34.4,34.4c19,0,34.4-15.4,34.4-34.4
		C758.5,295.8,743.1,280.4,724.1,280.4 M724.1,331.7c-9.3,0-16.9-7.6-16.9-16.9c0-9.3,7.6-16.9,16.9-16.9c9.3,0,16.9,7.6,16.9,16.9
		C741,324.1,733.4,331.7,724.1,331.7"/>
	<path class="st2" d="M720,435.6c-19,0-34.4,15.4-34.4,34.4c0,19,15.4,34.4,34.4,34.4c19,0,34.4-15.4,34.4-34.4
		C754.4,451,739,435.6,720,435.6 M720,486.9c-9.3,0-16.9-7.6-16.9-16.9c0-9.3,7.6-16.9,16.9-16.9c9.3,0,16.9,7.6,16.9,16.9
		C736.9,479.4,729.3,486.9,720,486.9"/>
	<path class="st2" d="M634.3,566.3c-19,0-34.4,15.4-34.4,34.4c0,19,15.4,34.4,34.4,34.4c19,0,34.4-15.4,34.4-34.4
		C668.7,581.7,653.3,566.3,634.3,566.3 M634.3,617.6c-9.3,0-16.9-7.6-16.9-16.9c0-9.3,7.6-16.9,16.9-16.9c9.3,0,16.9,7.6,16.9,16.9
		C651.2,610,643.6,617.6,634.3,617.6"/>
	<path class="st2" d="M491.1,677.4c-19,0-34.4,15.4-34.4,34.4c0,19,15.4,34.4,34.4,34.4c19,0,34.4-15.4,34.4-34.4
		C525.5,692.8,510.1,677.4,491.1,677.4 M491.1,728.6c-9.3,0-16.9-7.6-16.9-16.9c0-9.3,7.6-16.9,16.9-16.9c9.3,0,16.9,7.6,16.9,16.9
		C508,721.1,500.4,728.6,491.1,728.6"/>
	<path class="st2" d="M486.1,835c-19,0-34.4,15.4-34.4,34.4c0,19,15.4,34.4,34.4,34.4c19,0,34.4-15.4,34.4-34.4
		C520.5,850.4,505.1,835,486.1,835 M486.1,886.2c-9.3,0-16.9-7.6-16.9-16.9c0-9.3,7.6-16.9,16.9-16.9c9.3,0,16.9,7.6,16.9,16.9
		C503,878.7,495.4,886.2,486.1,886.2"/>
	<path class="st2" d="M758.5,635.1c-19,0-34.4,15.4-34.4,34.4c0,19,15.4,34.4,34.4,34.4c19,0,34.4-15.4,34.4-34.4
		C792.9,650.5,777.5,635.1,758.5,635.1 M758.5,686.4c-9.3,0-16.9-7.6-16.9-16.9c0-9.3,7.6-16.9,16.9-16.9c9.3,0,16.9,7.6,16.9,16.9
		C775.4,678.8,767.8,686.4,758.5,686.4"/>
	<path class="st2" d="M1080.4,755.1c-19,0-34.4,15.4-34.4,34.4c0,19,15.4,34.4,34.4,34.4c19,0,34.4-15.4,34.4-34.4
		C1114.9,770.5,1099.4,755.1,1080.4,755.1 M1080.4,806.4c-9.3,0-16.9-7.6-16.9-16.9c0-9.3,7.6-16.9,16.9-16.9
		c9.3,0,16.9,7.6,16.9,16.9C1097.3,798.9,1089.8,806.4,1080.4,806.4"/>
	<path class="st2" d="M668.7,755.1c-19,0-34.4,15.4-34.4,34.4c0,19,15.4,34.4,34.4,34.4c19,0,34.4-15.4,34.4-34.4
		C703.1,770.5,687.7,755.1,668.7,755.1 M668.7,806.4c-9.3,0-16.9-7.6-16.9-16.9c0-9.3,7.6-16.9,16.9-16.9c9.3,0,16.9,7.6,16.9,16.9
		C685.6,798.9,678,806.4,668.7,806.4"/>
	<path class="st2" d="M883.2,835c-19,0-34.4,15.4-34.4,34.4c0,19,15.4,34.4,34.4,34.4c19,0,34.4-15.4,34.4-34.4
		C917.6,850.4,902.2,835,883.2,835 M883.2,886.2c-9.3,0-16.9-7.6-16.9-16.9c0-9.3,7.6-16.9,16.9-16.9c9.3,0,16.9,7.6,16.9,16.9
		C900.1,878.7,892.5,886.2,883.2,886.2"/>
	<path class="st3" d="M883.2,835c-19,0-34.4,15.4-34.4,34.4c0,19,15.4,34.4,34.4,34.4c19,0,34.4-15.4,34.4-34.4
		C917.6,850.4,902.2,835,883.2,835z M883.2,886.2c-9.3,0-16.9-7.6-16.9-16.9c0-9.3,7.6-16.9,16.9-16.9c9.3,0,16.9,7.6,16.9,16.9
		C900.1,878.7,892.5,886.2,883.2,886.2z"/>
	<path class="st2" d="M917.5,689.9c-19,0-34.4,15.4-34.4,34.4c0,19,15.4,34.4,34.4,34.4c19,0,34.4-15.4,34.4-34.4
		C951.9,705.3,936.5,689.9,917.5,689.9 M917.5,741.2c-9.3,0-16.9-7.6-16.9-16.9c0-9.3,7.6-16.9,16.9-16.9c9.3,0,16.9,7.6,16.9,16.9
		C934.4,733.6,926.8,741.2,917.5,741.2"/>
	<path class="st2" d="M818.8,297.9c-19,0-34.4,15.4-34.4,34.4c0,19,15.4,34.4,34.4,34.4c19,0,34.4-15.4,34.4-34.4
		C853.3,313.3,837.8,297.9,818.8,297.9 M818.8,349.2c-9.3,0-16.9-7.6-16.9-16.9c0-9.3,7.6-16.9,16.9-16.9c9.3,0,16.9,7.6,16.9,16.9
		C835.7,341.7,828.2,349.2,818.8,349.2"/>
	<path class="st2" d="M818.8,524.7c-19,0-34.4,15.4-34.4,34.4c0,19,15.4,34.4,34.4,34.4c19,0,34.4-15.4,34.4-34.4
		C853.3,540.1,837.8,524.7,818.8,524.7 M818.8,576c-9.3,0-16.9-7.6-16.9-16.9c0-9.3,7.6-16.9,16.9-16.9c9.3,0,16.9,7.6,16.9,16.9
		C835.7,568.4,828.2,576,818.8,576"/>
	<rect x="395.2" y="503.1" transform="matrix(0.5 -0.866 0.866 0.5 -143.5339 777.4734)" class="st2" width="412.7" height="19.8"/>
	<rect x="508" y="859.5" class="st2" width="350.8" height="19.8"/>
	
		<rect x="440.7" y="787.3" transform="matrix(0.9488 -0.316 0.316 0.9488 -237.1499 184.5765)" class="st2" width="19.8" height="72.6"/>
	<rect x="418.5" y="752.1" transform="matrix(0.5 -0.866 0.866 0.5 -430.9469 777.5023)" class="st2" width="78.7" height="19.8"/>
	
		<rect x="438.6" y="778.9" transform="matrix(0.9995 -3.280196e-02 3.280196e-02 0.9995 -25.5817 18.2408)" class="st2" width="209" height="19.8"/>
	<rect x="429" y="724.2" transform="matrix(0.5 -0.866 0.866 0.5 -356.2725 851.1289)" class="st2" width="259.9" height="19.8"/>
	<rect x="902.9" y="869.4" class="st2" width="150.7" height="19.8"/>
	
		<rect x="851.1" y="785.8" transform="matrix(0.2158 -0.9764 0.9764 0.2158 -69.749 1504.5724)" class="st2" width="101.4" height="19.8"/>
	<rect x="937.5" y="322.5" transform="matrix(0.866 -0.5 0.5 0.866 -154.1466 548.9893)" class="st2" width="19.8" height="479.2"/>
	
		<rect x="809" y="675.9" transform="matrix(0.8418 -0.5397 0.5397 0.8418 -285.5367 563.5706)" class="st2" width="19.8" height="186.2"/>
	
		<rect x="765.4" y="288.3" transform="matrix(0.2036 -0.979 0.979 0.2036 309.2025 1009.7847)" class="st2" width="19.8" height="53"/>
	
		<rect x="1016.2" y="837.4" transform="matrix(0.3053 -0.9522 0.9522 0.3053 -72.7546 1594.7859)" class="st2" width="80.9" height="19.8"/>
	
		<rect x="979.8" y="721.8" transform="matrix(0.7503 -0.6611 0.6611 0.7503 -288.4131 856.504)" class="st2" width="19.8" height="176.5"/>
	
		<rect x="708.5" y="392.1" transform="matrix(0.5737 -0.8191 0.8191 0.5737 -1.671 800.8174)" class="st2" width="120" height="19.8"/>
	
		<rect x="553.3" y="619" transform="matrix(0.1489 -0.9888 0.9888 0.1489 -33.715 1218.5969)" class="st2" width="275.6" height="19.8"/>
	
		<rect x="686.8" y="589.9" transform="matrix(0.535 -0.8448 0.8448 0.535 -214.0843 884.6834)" class="st2" width="19.8" height="93.8"/>
	
		<rect x="765.6" y="736.8" transform="matrix(0.329 -0.9443 0.9443 0.329 -259.9953 1286.8417)" class="st2" width="19.8" height="179.1"/>
	
		<rect x="763.2" y="331" transform="matrix(0.931 -0.3651 0.3651 0.931 -106.4498 312.4764)" class="st2" width="19.8" height="213.5"/>
	
		<rect x="747" y="603.9" transform="matrix(0.4587 -0.8886 0.8886 0.4587 -120.1029 1030.3936)" class="st2" width="77.4" height="19.8"/>
	<rect x="862.2" y="564.5" transform="matrix(0.866 -0.5 0.5 0.866 -202.3585 521.6042)" class="st2" width="19.8" height="147.8"/>
	
		<rect x="888" y="505.5" transform="matrix(0.1489 -0.9888 0.9888 0.1489 206.5853 1367.7211)" class="st2" width="19.8" height="116.7"/>
	
		<rect x="988.2" y="694.9" transform="matrix(0.4003 -0.9164 0.9164 0.4003 -94.5659 1368.291)" class="st2" width="19.8" height="123"/>
	<rect x="568.4" y="509.3" transform="matrix(0.866 -0.5 0.5 0.866 -174.3112 387.8427)" class="st2" width="136.4" height="19.8"/>
</g>
</svg>
